<svg width="24" height="24" viewBox="0 0 24 24" fill="none" xmlns="http://www.w3.org/2000/svg">
<g clip-path="url(#clip0_5_1805)">
<path d="M18 12.1436V8.96362C17.9986 7.54674 17.4958 6.17609 16.5806 5.09439C15.6655 4.0127 14.3971 3.28976 13 3.05362L12.8065 3.0362C12.2699 2.98793 11.7301 2.98793 11.1935 3.0362L11 3.05362C9.60294 3.28976 8.33452 4.0127 7.41939 5.09439C6.50425 6.17609 6.00144 7.54674 6 8.96362V12.1436C5.41645 12.3499 4.911 12.7317 4.55294 13.2366C4.19488 13.7414 4.00174 14.3447 4 14.9636V16.9636C4 17.2288 4.10536 17.4832 4.29289 17.6707C4.48043 17.8583 4.73478 17.9636 5 17.9636H8.14C8.37028 18.811 8.873 19.559 9.5706 20.0924C10.2682 20.6257 11.1219 20.9146 12 20.9146C12.8781 20.9146 13.7318 20.6257 14.4294 20.0924C15.127 19.559 15.6297 18.811 15.86 17.9636H19C19.2652 17.9636 19.5196 17.8583 19.7071 17.6707C19.8946 17.4832 20 17.2288 20 16.9636V14.9636C19.9983 14.3447 19.8051 13.7414 19.4471 13.2366C19.089 12.7317 18.5835 12.3499 18 12.1436ZM8 8.96362C8 7.90275 8.42143 6.88534 9.17157 6.13519C9.92172 5.38504 10.9391 4.96362 12 4.96362C13.0609 4.96362 14.0783 5.38504 14.8284 6.13519C15.5786 6.88534 16 7.90275 16 8.96362V11.9636H8V8.96362ZM12 18.9636C11.651 18.9615 11.3086 18.8681 11.0068 18.6927C10.7051 18.5172 10.4545 18.2659 10.28 17.9636H13.72C13.5455 18.2659 13.2949 18.5172 12.9932 18.6927C12.6914 18.8681 12.349 18.9615 12 18.9636ZM18 15.9636H6V14.9636C6 14.6984 6.10536 14.444 6.29289 14.2565C6.48043 14.069 6.73478 13.9636 7 13.9636C7.55228 13.9636 8 13.5159 8 12.9636V11.9636H16V12.9636C16 13.5159 16.4477 13.9636 17 13.9636C17.2652 13.9636 17.5196 14.069 17.7071 14.2565C17.8946 14.444 18 14.6984 18 14.9636V15.9636Z" fill="#333333"/>
</g>
<defs>
<clipPath id="clip0_5_1805">
<rect width="24" height="24" fill="white"/>
</clipPath>
</defs>
</svg>
