<svg width="24" height="24" viewBox="0 0 24 24" fill="none" xmlns="http://www.w3.org/2000/svg">
<path d="M8.625 18C9.24632 18 9.75 17.4963 9.75 16.875C9.75 16.2537 9.24632 15.75 8.625 15.75C8.00368 15.75 7.5 16.2537 7.5 16.875C7.5 17.4963 8.00368 18 8.625 18Z" fill="#333333"/>
<path d="M9.75 19.875C9.75 20.4963 9.24632 21 8.625 21C8.00368 21 7.5 20.4963 7.5 19.875C7.5 19.2537 8.00368 18.75 8.625 18.75C9.24632 18.75 9.75 19.2537 9.75 19.875Z" fill="#333333"/>
<path d="M15.375 18C15.9963 18 16.5 17.4963 16.5 16.875C16.5 16.2537 15.9963 15.75 15.375 15.75C14.7537 15.75 14.25 16.2537 14.25 16.875C14.25 17.4963 14.7537 18 15.375 18Z" fill="#333333"/>
<path d="M16.5 19.875C16.5 20.4963 15.9963 21 15.375 21C14.7537 21 14.25 20.4963 14.25 19.875C14.25 19.2537 14.7537 18.75 15.375 18.75C15.9963 18.75 16.5 19.2537 16.5 19.875Z" fill="#333333"/>
<path d="M12 18C12.6213 18 13.125 17.4963 13.125 16.875C13.125 16.2537 12.6213 15.75 12 15.75C11.3787 15.75 10.875 16.2537 10.875 16.875C10.875 17.4963 11.3787 18 12 18Z" fill="#333333"/>
<path d="M13.125 19.875C13.125 20.4963 12.6213 21 12 21C11.3787 21 10.875 20.4963 10.875 19.875C10.875 19.2537 11.3787 18.75 12 18.75C12.6213 18.75 13.125 19.2537 13.125 19.875Z" fill="#333333"/>
<path fill-rule="evenodd" clip-rule="evenodd" d="M8.25 9C7.83579 9 7.5 9.33579 7.5 9.75V13.5C7.5 13.9142 7.83579 14.25 8.25 14.25H15.75C16.1642 14.25 16.5 13.9142 16.5 13.5V9.75C16.5 9.33579 16.1642 9 15.75 9H8.25ZM9 12.75V10.5H15V12.75H9Z" fill="#333333"/>
<path fill-rule="evenodd" clip-rule="evenodd" d="M9 0C8.17157 0 7.5 0.671573 7.5 1.5V6C5.84315 6 4.5 7.34315 4.5 9V21C4.5 22.6569 5.84315 24 7.5 24H16.5C18.1569 24 19.5 22.6569 19.5 21V9C19.5 7.34315 18.1569 6 16.5 6V1.5C16.5 0.671573 15.8284 0 15 0H9ZM12 6H9V1.5H15V6H13.5V3H12V6ZM6 9C6 8.17157 6.67157 7.5 7.5 7.5H16.5C17.3284 7.5 18 8.17157 18 9V21C18 21.8284 17.3284 22.5 16.5 22.5H7.5C6.67157 22.5 6 21.8284 6 21V9Z" fill="#333333"/>
</svg>
