<svg width="144" height="140" viewBox="0 0 144 140" fill="none" xmlns="http://www.w3.org/2000/svg">
<path d="M61.0822 19.3254C59.9629 23.4595 55.6693 25.9128 51.4921 24.8051C47.3149 23.6974 44.4294 19.0488 45.5487 14.9147C46.668 10.7807 51.3682 8.72661 55.5454 9.83433C59.7226 10.9421 62.2015 15.1914 61.0822 19.3254Z" fill="#D43E51"/>
<path d="M61.2093 26.4056C61.2093 29.8 58.4289 32.5517 54.9991 32.5517C51.5693 32.5517 48.7889 29.8 48.7889 26.4056C48.7889 23.0112 51.5693 20.2595 54.9991 20.2595C58.4289 20.2595 61.2093 23.0112 61.2093 26.4056Z" fill="#D43E51"/>
<path d="M79.0296 14.915C79.0296 21.9989 73.227 27.7416 66.0691 27.7416C58.9112 27.7416 53.1086 21.9989 53.1086 14.915C53.1086 7.831 57.0212 0.484985 64.1791 0.484985C71.3369 0.484985 79.0296 7.831 79.0296 14.915Z" fill="#D43E51"/>
<path d="M87.6701 18.3887C87.6701 22.6686 84.1644 25.0693 79.8398 25.0693C75.5153 25.0693 72.0095 21.5998 72.0095 17.3198C72.0095 13.0399 74.4352 10.3721 78.7598 10.3721C83.0843 10.3721 87.6701 14.1088 87.6701 18.3887Z" fill="#D43E51"/>
<path d="M86.0502 26.4055C86.0502 30.0951 83.028 33.0861 79.2999 33.0861C75.5719 33.0861 72.5497 30.0951 72.5497 26.4055C72.5497 22.716 75.5719 19.725 79.2999 19.725C83.028 19.725 86.0502 22.716 86.0502 26.4055Z" fill="#D43E51"/>
<path d="M73.9462 20.7065C73.9462 23.8974 71.3325 26.4841 68.1083 26.4841C64.8842 26.4841 62.2705 23.8974 62.2705 20.7065C62.2705 17.5157 64.8842 14.929 68.1083 14.929C71.3325 14.929 73.9462 17.5157 73.9462 20.7065Z" fill="#FDBF85"/>
<path fill-rule="evenodd" clip-rule="evenodd" d="M68.1083 25.3565C70.7032 25.3565 72.8068 23.2746 72.8068 20.7065C72.8068 18.1384 70.7032 16.0565 68.1083 16.0565C65.5134 16.0565 63.4099 18.1384 63.4099 20.7065C63.4099 23.2746 65.5134 25.3565 68.1083 25.3565ZM68.1083 26.4841C71.3325 26.4841 73.9462 23.8974 73.9462 20.7065C73.9462 17.5157 71.3325 14.929 68.1083 14.929C64.8842 14.929 62.2705 17.5157 62.2705 20.7065C62.2705 23.8974 64.8842 26.4841 68.1083 26.4841Z" fill="#983038"/>
<path d="M91.8997 109.924L104.842 62.1809C107.012 54.1785 100.919 46.3181 92.5475 46.3181C86.7875 46.3181 81.7452 50.146 80.2527 55.6518L65.54 109.924H91.8997Z" fill="#B25735"/>
<path d="M56.4321 30.1703C56.4321 23.6139 61.8773 18.299 68.5943 18.299C75.3113 18.299 80.7564 23.6139 80.7564 30.1703V33.0183C80.7564 37.1206 77.3493 40.4463 73.1465 40.4463H64.0421C59.8392 40.4463 56.4321 37.1207 56.4321 33.0183V30.1703Z" fill="#D43E51"/>
<path fill-rule="evenodd" clip-rule="evenodd" d="M55.8624 29.9482C55.8624 23.1859 61.5804 17.7352 68.5943 17.7352C75.6081 17.7352 81.3261 23.1859 81.3261 29.9482V32.7429C81.3261 33.0543 81.071 33.3067 80.7564 33.3067C80.4418 33.3067 80.1867 33.0543 80.1867 32.7429V29.9482C80.1867 23.8432 75.0143 18.8628 68.5943 18.8628C62.1742 18.8628 57.0018 23.8432 57.0018 29.9482V32.7429C57.0018 33.0543 56.7467 33.3067 56.4321 33.3067C56.1175 33.3067 55.8624 33.0543 55.8624 32.7429V29.9482Z" fill="#983038"/>
<path d="M72.9727 42.9111V48.5754C72.9727 48.5754 72.9727 52.0016 69.47 52.0016C65.6754 52.0016 65.6754 48.5754 65.6754 48.5754L66.0531 42.6937C66.169 40.8888 67.682 39.4835 69.5094 39.4835C71.4221 39.4835 72.9727 41.0181 72.9727 42.9111Z" fill="#FCBFC8"/>
<path d="M126.487 43.2547C125.447 47.8227 122.221 58.6019 119.343 64.1956C117.915 66.9722 116.095 69.8904 113.821 72.2185C111.621 74.4717 108.126 77.0377 103.456 77.0377C99.1778 77.0377 95.7401 74.9293 93.4598 73.0666C91.074 71.1176 89.0214 68.6737 87.3726 66.4186C84.0577 61.8849 81.5404 56.9428 80.5809 55.0399C78.7208 51.351 80.2287 46.8652 83.9491 45.0207C87.6694 43.1762 92.1933 44.6715 94.0534 48.3605C94.9768 50.1916 97.0322 54.1843 99.5675 57.6518C100.844 59.3974 102.036 60.7207 103.037 61.5389C103.084 61.577 103.129 61.613 103.172 61.6468C103.954 60.7916 104.909 59.3848 105.926 57.4078C108.091 53.1999 110.951 43.665 111.794 39.965L126.487 43.2547Z" fill="#FCBFC8"/>
<path d="M95.1077 53.3853C95.1077 54.6991 94.0315 55.7642 92.704 55.7642C91.3765 55.7642 90.3003 54.6991 90.3003 53.3853C90.3003 52.0715 91.3765 51.0065 92.704 51.0065C94.0315 51.0065 95.1077 52.0715 95.1077 53.3853Z" fill="#FDBF85"/>
<path d="M94.443 53.3855C94.443 54.3358 93.6646 55.1061 92.7045 55.1061C91.7443 55.1061 90.9659 54.3358 90.9659 53.3855C90.9659 52.4352 91.7443 51.6649 92.7045 51.6649C93.6646 51.6649 94.443 52.4352 94.443 53.3855Z" fill="#FFE5B2"/>
<path d="M95.0992 50.3828C95.8112 51.7196 96.7326 53.3657 97.7956 55.0416L84.5158 62.1446C83.4465 60.408 82.5349 58.7735 81.826 57.446L95.0992 50.3828Z" fill="#D1FAE8"/>
<path d="M95.0996 50.383L81.8265 57.4462C81.2874 56.4366 80.8656 55.6045 80.5809 55.04C78.7208 51.351 80.2287 46.8652 83.9491 45.0208C87.6694 43.1763 92.1933 44.6715 94.0534 48.3605C94.3158 48.8807 94.6695 49.5754 95.0996 50.383Z" fill="#DBE8BB"/>
<path d="M46.3034 65.4523C46.9771 72.8535 49.5783 86.8521 50.7947 92.9263H89.8121L91.777 83.1141C92.8062 81.619 94.8647 78.124 94.8647 72.7413C94.8647 67.3587 90.0928 62.3685 88.4086 60.4061C86.7244 58.4437 85.6016 55.0795 83.6367 52.5564C82.0647 50.5379 80.9232 48.9119 80.5489 48.6316H50.7947C49.0169 50.9678 45.6298 58.0512 46.3034 65.4523Z" fill="#DBE8BB"/>
<path fill-rule="evenodd" clip-rule="evenodd" d="M85.2876 55.1153C85.5651 54.9686 85.9102 55.0723 86.0585 55.347C86.2585 55.7176 86.4505 56.0826 86.6379 56.4387C87.376 57.8418 88.042 59.1077 88.8429 60.0409C88.9715 60.1907 89.1199 60.3602 89.2844 60.548C90.1769 61.5669 91.5404 63.1235 92.7479 64.9866C94.1756 67.1896 95.4345 69.8923 95.4345 72.7411C95.4345 73.0647 95.4273 73.3818 95.4134 73.6924C95.3995 74.0035 95.1334 74.2445 94.8191 74.2307C94.5048 74.217 94.2613 73.9537 94.2751 73.6426C94.2883 73.3486 94.2952 73.0481 94.2952 72.7411C94.2952 70.2073 93.1681 67.7236 91.7888 65.5953C90.6304 63.8078 89.3289 62.3211 88.434 61.2989C88.2651 61.106 88.1107 60.9296 87.9745 60.7709C87.0819 59.7308 86.3381 58.3147 85.5946 56.8992C85.4149 56.5571 85.2353 56.215 85.0535 55.8782C84.9053 55.6036 85.0101 55.262 85.2876 55.1153Z" fill="#24BC85"/>
<path d="M65.979 43.8511L66.2473 39.6726H72.973V46.4148C69.7005 46.3399 67.0473 44.765 65.979 43.8511Z" fill="#F68997"/>
<path fill-rule="evenodd" clip-rule="evenodd" d="M78.6304 68.7994C78.9288 68.7008 79.2515 68.8603 79.3511 69.1557C79.6321 69.9886 79.9058 71.0796 80.1764 72.9507C80.4562 74.886 80.3674 76.8563 80.1651 77.656C80.0886 77.9581 79.7793 78.1416 79.4741 78.066C79.1689 77.9904 78.9834 77.6842 79.0598 77.3821C79.2138 76.7737 79.3162 74.9621 79.0485 73.1105C78.7846 71.2852 78.5239 70.264 78.2704 69.5128C78.1708 69.2174 78.332 68.898 78.6304 68.7994Z" fill="#24BC85"/>
<path d="M71.3512 52.9648C67.5661 52.9648 65.5597 50.4423 65.1888 48.6316H75.2667C75.5838 49.7583 75.7268 52.9648 71.3512 52.9648Z" fill="#FCBFC8"/>
<path fill-rule="evenodd" clip-rule="evenodd" d="M75.1139 48.0884C75.417 48.0049 75.7311 48.1803 75.8156 48.4803C75.9947 49.1168 76.1367 50.357 75.5793 51.4709C74.9885 52.6517 73.698 53.5285 71.3512 53.5285C67.2778 53.5285 65.0517 50.7999 64.6306 48.7436C64.5681 48.4384 64.7674 48.1409 65.0758 48.079C65.3841 48.0172 65.6847 48.2144 65.7472 48.5196C66.0678 50.0846 67.8546 52.4009 71.3512 52.4009C73.3801 52.4009 74.206 51.6746 74.5583 50.9705C74.9441 50.1995 74.856 49.2731 74.718 48.7828C74.6336 48.4829 74.8108 48.172 75.1139 48.0884Z" fill="#D1FAE8"/>
<path d="M110.429 132.863L123.05 86.3044C123.439 84.8719 122.348 83.4648 120.85 83.4648H89.3344L102.726 132.863C103.783 136.761 109.372 136.761 110.429 132.863Z" fill="#98452E"/>
<path d="M120.293 86.1801H92.8612L106.577 136.987L120.293 86.1801Z" fill="#B25735"/>
<path d="M94.8203 131.557L106.969 88.119H93.2527L80.5165 131.557H94.8203Z" fill="#B25735"/>
<path fill-rule="evenodd" clip-rule="evenodd" d="M107.121 87.5757C107.424 87.6588 107.602 87.9694 107.518 88.2695L95.3695 131.707C95.2855 132.007 94.9717 132.183 94.6685 132.1C94.3652 132.017 94.1875 131.707 94.2714 131.407L106.42 87.9687C106.504 87.6686 106.818 87.4927 107.121 87.5757Z" fill="#98452E"/>
<path fill-rule="evenodd" clip-rule="evenodd" d="M113.326 87.5757C113.629 87.6588 113.807 87.9694 113.723 88.2695L101.575 131.707C101.491 132.007 101.177 132.183 100.874 132.1C100.571 132.017 100.393 131.707 100.477 131.407L112.625 87.9687C112.709 87.6686 113.023 87.4927 113.326 87.5757Z" fill="#98452E"/>
<path fill-rule="evenodd" clip-rule="evenodd" d="M106.577 139.314H34.8095C33.2833 139.314 31.8933 138.455 31.2486 137.086C28.9409 132.186 23.5049 120.207 21.1931 111.389C17.2738 96.4392 16.9411 88.5468 17.0629 85.2951C17.103 84.2251 18.0037 83.4648 19.0856 83.4648H53.2804H89.3337L89.3338 83.4649L102.725 132.863C103.132 134.362 104.208 135.285 105.44 135.631L106.577 139.314Z" fill="#CF693F"/>
<path d="M109.154 137.563L123.357 85.1705C123.59 84.3103 122.935 83.4653 122.035 83.4653C121.415 83.4653 120.872 83.878 120.713 84.471L106.577 136.987L92.9078 86.1843C92.4764 84.5811 91.0096 83.4653 89.3331 83.4653L103.999 137.563C104.707 140.172 108.447 140.172 109.154 137.563Z" fill="#4F1808"/>
<path d="M67.8836 101.282L73.3637 121.497H52.2084L46.7282 101.282H67.8836Z" fill="#24BC85"/>
<path d="M64.7316 105.614L67.8835 117.165H55.7159L52.564 105.614H64.7316Z" fill="#CF693F"/>
<path d="M61.7263 109.224L62.7769 113.555H58.7211L57.6704 109.224H61.7263Z" fill="#24BC85"/>
<path d="M28.6371 35.4338C31.5783 35.9275 32.828 37.5714 32.5587 39.8773C32.0685 44.074 27.4116 46.0488 22.2645 47.53C17.1472 49.0026 13.968 47.547 11.2818 46.3171L11.2351 46.2957C7.91698 44.7766 6.5782 43.8271 6.3331 42.0991C6.13702 40.7167 9.19258 39.3837 10.7449 38.8899C9.68278 38.7254 7.41153 38.0506 6.8233 36.6682C6.23506 35.2858 6.8233 33.7059 9.02919 33.7059C11.2351 33.7059 11.9704 34.6934 13.9312 34.6934C15.892 34.6934 16.137 33.7059 19.3233 33.7059C21.8724 33.7059 23.8168 35.187 24.4704 35.9275C25.2057 35.6808 26.6763 35.1047 28.6371 35.4338Z" fill="#FCBFC8"/>
<path fill-rule="evenodd" clip-rule="evenodd" d="M25.3634 36.4574C25.4401 36.7594 25.2549 37.0657 24.9498 37.1416C22.8602 37.6613 21.3246 38.8798 20.85 39.3857C20.6359 39.6139 20.2755 39.6272 20.0449 39.4153C19.8144 39.2034 19.801 38.8467 20.015 38.6185C20.6158 37.9781 22.3372 36.6288 24.6721 36.048C24.9772 35.9721 25.2867 36.1554 25.3634 36.4574Z" fill="#F68997"/>
<path fill-rule="evenodd" clip-rule="evenodd" d="M19.5169 104.483L54.7111 139.314H34.8104C33.2842 139.314 31.8943 138.456 31.2495 137.086C28.9419 132.186 23.5058 120.208 21.1941 111.39C20.54 108.895 19.9858 106.596 19.5169 104.483Z" fill="#B25735"/>
<path fill-rule="evenodd" clip-rule="evenodd" d="M35.0763 136.211C35.0763 135.9 35.3313 135.647 35.646 135.647L38.0118 135.647C38.3264 135.647 38.5815 135.9 38.5815 136.211C38.5815 136.522 38.3264 136.775 38.0118 136.775L35.646 136.775C35.3313 136.775 35.0763 136.522 35.0763 136.211ZM43.3567 136.211C43.3567 135.9 43.6117 135.647 43.9263 135.647L48.658 135.647C48.9726 135.647 49.2276 135.9 49.2276 136.211C49.2276 136.522 48.9726 136.775 48.658 136.775L43.9263 136.775C43.6117 136.775 43.3567 136.522 43.3567 136.211ZM54.0028 136.211C54.0028 135.9 54.2579 135.647 54.5725 135.647L59.3042 135.647C59.6188 135.647 59.8738 135.9 59.8738 136.211C59.8738 136.522 59.6188 136.775 59.3042 136.775L54.5725 136.775C54.2579 136.775 54.0028 136.522 54.0028 136.211ZM64.649 136.211C64.649 135.9 64.9041 135.647 65.2187 135.647L69.9503 135.647C70.265 135.647 70.52 135.9 70.52 136.211C70.52 136.522 70.265 136.775 69.9503 136.775L65.2187 136.775C64.9041 136.775 64.649 136.522 64.649 136.211ZM75.2952 136.211C75.2952 135.9 75.5503 135.647 75.8649 135.647L80.5965 135.647C80.9112 135.647 81.1662 135.9 81.1662 136.211C81.1662 136.522 80.9112 136.775 80.5965 136.775L75.8649 136.775C75.5503 136.775 75.2952 136.522 75.2952 136.211ZM85.9414 136.211C85.9414 135.9 86.1965 135.647 86.5111 135.647L91.2427 135.647C91.5573 135.647 91.8124 135.9 91.8124 136.211C91.8124 136.522 91.5573 136.775 91.2427 136.775L86.5111 136.775C86.1965 136.775 85.9414 136.522 85.9414 136.211ZM96.5876 136.211C96.5876 135.9 96.8427 135.647 97.1573 135.647L99.5231 135.647C99.8377 135.647 100.093 135.9 100.093 136.211C100.093 136.522 99.8377 136.775 99.5231 136.775L97.1573 136.775C96.8427 136.775 96.5876 136.522 96.5876 136.211Z" fill="#24BC85"/>
<path d="M6.53413 42.5905C7.90097 43.4077 11.4694 43.873 11.1716 45.3992C10.9275 46.6505 8.2579 47.1868 6.29007 47.1868C4.33746 47.1868 4.09336 46.1654 1.65258 44.8887C-0.788199 43.6119 -0.300043 41.0584 1.65258 40.5477C3.6052 40.037 4.82559 41.5692 6.53413 42.5905Z" fill="#FCBFC8"/>
<path d="M9.93947 42.5905C11.3063 43.4077 14.8747 43.873 14.577 45.3992C14.3329 46.6505 11.6632 47.1868 9.6954 47.1868C7.74279 47.1868 7.49869 46.1654 5.05791 44.8887C2.61714 43.6119 3.10529 41.0584 5.05791 40.5477C7.01054 40.037 8.23092 41.5692 9.93947 42.5905Z" fill="#FCBFC8"/>
<path fill-rule="evenodd" clip-rule="evenodd" d="M8.89801 41.2828C9.27365 41.5573 9.63767 41.8226 10.026 42.0565C10.2947 42.2184 10.38 42.5653 10.2164 42.8313C10.0528 43.0972 9.7023 43.1816 9.43355 43.0197C8.99601 42.7561 8.59308 42.4616 8.22375 42.1918L8.22127 42.19C7.84348 41.9139 7.50479 41.6667 7.16409 41.4656C6.50166 41.0745 5.89503 40.8943 5.15157 41.0903C4.43571 41.279 4.02036 41.8276 3.97864 42.4215C3.93788 43.0016 4.25297 43.7445 5.27278 44.2821C5.55046 44.4285 5.65567 44.77 5.50776 45.0448C5.35985 45.3196 5.01483 45.4237 4.73715 45.2773C3.39455 44.5696 2.76468 43.4444 2.84204 42.3433C2.91844 41.2559 3.68429 40.3102 4.85835 40.0007C6.00482 39.6985 6.93374 40.0166 7.74782 40.4972C8.13897 40.7282 8.51777 41.005 8.88023 41.2698L8.89801 41.2828Z" fill="#D43E51"/>
<path d="M12.8582 43.4003C14.2251 44.159 17.7935 44.5912 17.4957 46.0083C17.2516 47.1702 14.582 47.6682 12.6142 47.6682C10.6616 47.6682 10.4175 46.7198 7.97668 45.5342C5.5359 44.3487 6.02405 41.9776 7.97668 41.5034C9.9293 41.0292 11.1497 42.4518 12.8582 43.4003Z" fill="#FCBFC8"/>
<path fill-rule="evenodd" clip-rule="evenodd" d="M12.5533 42.0659C12.9858 42.3094 13.41 42.5476 13.8636 42.7581C14.1485 42.8903 14.2711 43.226 14.1375 43.508C14.0039 43.7899 13.6647 43.9112 13.3799 43.779C12.8798 43.5469 12.4183 43.2871 11.9907 43.0464L11.99 43.046C11.5554 42.8014 11.1598 42.5788 10.7602 42.3971C9.97955 42.042 9.22001 41.8597 8.28455 42.0497C7.34424 42.2406 6.93528 42.7663 6.89747 43.1809C6.86163 43.5738 7.13414 44.231 8.38632 44.7395C8.67738 44.8578 8.81652 45.1871 8.69708 45.4752C8.57765 45.7632 8.24486 45.9009 7.9538 45.7827C6.48012 45.1843 5.66229 44.181 5.76274 43.0795C5.86123 41.9996 6.81519 41.1969 8.05556 40.9451C9.30078 40.6922 10.313 40.9527 11.236 41.3726C11.6819 41.5754 12.1151 41.8192 12.5353 42.0558L12.5533 42.0659Z" fill="#D43E51"/>
<path d="M16.264 44.035C17.6308 44.8521 21.1992 45.3175 20.9015 46.8437C20.6574 48.0949 17.9878 48.6312 16.0199 48.6312C14.0673 48.6312 13.8232 47.6099 11.3824 46.3331C8.94166 45.0564 9.42981 42.5029 11.3824 41.9922C13.3351 41.4815 14.5554 43.0136 16.264 44.035Z" fill="#FCBFC8"/>
<path fill-rule="evenodd" clip-rule="evenodd" d="M32.348 39.002L33.8778 46.9352C34.006 47.6005 34.1294 48.2527 34.2501 48.8911C34.9706 52.7012 35.5984 56.0215 36.6355 58.7125C36.8978 59.3932 37.13 59.891 37.3239 60.2514C37.7702 59.8126 38.3228 59.1858 38.9756 58.3198C40.4948 56.3043 41.7453 54.1757 43.1234 51.83C43.8437 50.6039 44.5989 49.3185 45.4455 47.9589C47.802 44.1745 52.7688 43.0241 56.5391 45.3893C60.3095 47.7545 61.4557 52.7398 59.0992 56.5241C58.6815 57.1949 58.1697 58.0633 57.5892 59.0481C56.0029 61.7393 53.9044 65.2996 51.816 68.0702C50.297 70.0856 48.3609 72.3025 45.9732 74.016C43.5267 75.7717 40.1638 77.3006 36.1132 76.9995C27.4055 76.3521 23.4062 69.1815 21.6186 64.5426C19.9988 60.3395 19.0641 55.3233 18.3779 51.6409C18.2697 51.0599 18.1676 50.5122 18.07 50.0061L16.5402 42.0729L32.348 39.002Z" fill="#FCBFC8"/>
<path fill-rule="evenodd" clip-rule="evenodd" d="M15.6028 42.7157C16.007 42.9899 16.4007 43.2564 16.8212 43.4916C17.0951 43.6448 17.1916 43.9887 17.0368 44.2598C16.8819 44.5309 16.5344 44.6264 16.2605 44.4732C15.7912 44.2106 15.3587 43.9172 14.9604 43.6469L14.9586 43.6457C14.5522 43.37 14.1855 43.1214 13.8161 42.9188C13.0963 42.5242 12.42 42.3338 11.5893 42.5371C10.7809 42.7349 10.3464 43.3 10.3034 43.8688C10.2614 44.4237 10.5844 45.17 11.7051 45.7186C11.9871 45.8567 12.1027 46.1949 11.9632 46.474C11.8237 46.7531 11.482 46.8674 11.2 46.7294C9.77666 46.0326 9.08199 44.9109 9.16721 43.7846C9.25138 42.6721 10.0889 41.7427 11.3158 41.4425C12.5205 41.1476 13.4978 41.4553 14.3682 41.9325C14.7872 42.1623 15.1936 42.438 15.5847 42.7034L15.6028 42.7157Z" fill="#D43E51"/>
<path fill-rule="evenodd" clip-rule="evenodd" d="M22.9317 47.5345C23.0065 47.837 22.8194 48.1422 22.5138 48.2162C21.2469 48.523 18.3428 49.1356 16.5597 49.1949C16.2453 49.2054 15.9818 48.9616 15.9712 48.6504C15.9606 48.3392 16.207 48.0785 16.5214 48.068C18.1743 48.013 20.9756 47.4278 22.243 47.1209C22.5486 47.0469 22.857 47.2321 22.9317 47.5345Z" fill="#F68997"/>
<path fill-rule="evenodd" clip-rule="evenodd" d="M10.133 38.5207C10.133 38.2093 10.388 37.9569 10.7027 37.9569H13.6216C13.9362 37.9569 14.1913 38.2093 14.1913 38.5207C14.1913 38.8321 13.9362 39.0845 13.6216 39.0845H10.7027C10.388 39.0845 10.133 38.8321 10.133 38.5207Z" fill="#F68997"/>
<path d="M115.363 35.4338C112.422 35.9275 111.172 37.5714 111.441 39.8773C111.931 44.074 116.588 46.0488 121.735 47.53C126.853 49.0026 130.032 47.547 132.718 46.3171L132.765 46.2957C136.083 44.7766 137.422 43.8271 137.667 42.0991C137.863 40.7167 134.807 39.3837 133.255 38.8899C134.317 38.7254 136.588 38.0506 137.177 36.6682C137.765 35.2858 137.177 33.7059 134.971 33.7059C132.765 33.7059 132.03 34.6934 130.069 34.6934C128.108 34.6934 127.863 33.7059 124.677 33.7059C122.128 33.7059 120.183 35.187 119.529 35.9275C118.794 35.6808 117.324 35.1047 115.363 35.4338Z" fill="#FCBFC8"/>
<path fill-rule="evenodd" clip-rule="evenodd" d="M118.637 36.4574C118.56 36.7594 118.745 37.0657 119.051 37.1416C121.14 37.6613 122.676 38.8798 123.15 39.3857C123.364 39.6139 123.725 39.6272 123.955 39.4153C124.186 39.2034 124.199 38.8467 123.985 38.6185C123.384 37.9781 121.663 36.6288 119.328 36.048C119.023 35.9721 118.714 36.1554 118.637 36.4574Z" fill="#F68997"/>
<path d="M137.466 42.5905C136.099 43.4077 132.531 43.873 132.828 45.3992C133.072 46.6505 135.742 47.1868 137.71 47.1868C139.662 47.1868 139.907 46.1654 142.347 44.8887C144.788 43.6119 144.3 41.0584 142.347 40.5477C140.395 40.037 139.174 41.5692 137.466 42.5905Z" fill="#FCBFC8"/>
<path d="M134.06 42.5905C132.694 43.4077 129.125 43.873 129.423 45.3992C129.667 46.6505 132.337 47.1868 134.304 47.1868C136.257 47.1868 136.501 46.1654 138.942 44.8887C141.383 43.6119 140.895 41.0584 138.942 40.5477C136.989 40.037 135.769 41.5692 134.06 42.5905Z" fill="#FCBFC8"/>
<path fill-rule="evenodd" clip-rule="evenodd" d="M135.102 41.2828C134.726 41.5573 134.362 41.8226 133.974 42.0565C133.705 42.2184 133.62 42.5653 133.784 42.8313C133.947 43.0972 134.298 43.1816 134.566 43.0197C135.004 42.7561 135.407 42.4616 135.776 42.1918L135.779 42.19C136.156 41.9139 136.495 41.6667 136.836 41.4656C137.498 41.0745 138.105 40.8943 138.848 41.0903C139.564 41.279 139.98 41.8276 140.021 42.4215C140.062 43.0016 139.747 43.7445 138.727 44.2821C138.449 44.4285 138.344 44.77 138.492 45.0448C138.64 45.3196 138.985 45.4237 139.263 45.2773C140.605 44.5696 141.235 43.4444 141.158 42.3433C141.081 41.2559 140.316 40.3102 139.142 40.0007C137.995 39.6985 137.066 40.0166 136.252 40.4972C135.861 40.7282 135.482 41.005 135.12 41.2698L135.102 41.2828Z" fill="#D43E51"/>
<path d="M131.142 43.4003C129.775 44.159 126.206 44.5912 126.504 46.0083C126.748 47.1702 129.418 47.6682 131.386 47.6682C133.338 47.6682 133.582 46.7198 136.023 45.5342C138.464 44.3487 137.976 41.9776 136.023 41.5034C134.071 41.0292 132.85 42.4518 131.142 43.4003Z" fill="#FCBFC8"/>
<path fill-rule="evenodd" clip-rule="evenodd" d="M131.447 42.0659C131.014 42.3094 130.59 42.5476 130.137 42.7581C129.852 42.8903 129.729 43.226 129.863 43.508C129.996 43.7899 130.336 43.9112 130.62 43.779C131.121 43.5469 131.582 43.2871 132.01 43.0464L132.01 43.046C132.445 42.8014 132.841 42.5788 133.24 42.3971C134.021 42.042 134.78 41.8597 135.716 42.0497C136.656 42.2406 137.065 42.7663 137.103 43.1809C137.139 43.5738 136.866 44.231 135.614 44.7395C135.323 44.8578 135.184 45.1871 135.303 45.4752C135.423 45.7632 135.755 45.9009 136.047 45.7827C137.52 45.1843 138.338 44.181 138.238 43.0795C138.139 41.9996 137.185 41.1969 135.945 40.9451C134.7 40.6922 133.687 40.9527 132.764 41.3726C132.318 41.5754 131.885 41.8192 131.465 42.0558L131.447 42.0659Z" fill="#D43E51"/>
<path d="M127.736 44.035C126.369 44.8521 122.801 45.3175 123.099 46.8437C123.343 48.0949 126.012 48.6312 127.98 48.6312C129.933 48.6312 130.177 47.6099 132.618 46.3331C135.059 45.0564 134.57 42.5029 132.618 41.9922C130.665 41.4815 129.445 43.0136 127.736 44.035Z" fill="#FCBFC8"/>
<path fill-rule="evenodd" clip-rule="evenodd" d="M128.397 42.7157C127.993 42.9899 127.6 43.2564 127.179 43.4916C126.905 43.6448 126.809 43.9887 126.964 44.2598C127.118 44.5309 127.466 44.6264 127.74 44.4732C128.209 44.2106 128.642 43.9172 129.04 43.6469L129.042 43.6457C129.448 43.37 129.815 43.1214 130.184 42.9188C130.904 42.5242 131.58 42.3338 132.411 42.5371C133.219 42.7349 133.654 43.3 133.697 43.8688C133.739 44.4237 133.416 45.17 132.295 45.7186C132.013 45.8567 131.898 46.1949 132.037 46.474C132.177 46.7531 132.518 46.8674 132.8 46.7294C134.224 46.0326 134.918 44.9109 134.833 43.7846C134.749 42.6721 133.911 41.7427 132.684 41.4425C131.48 41.1476 130.502 41.4553 129.632 41.9325C129.213 42.1623 128.807 42.438 128.416 42.7034L128.397 42.7157Z" fill="#D43E51"/>
<path fill-rule="evenodd" clip-rule="evenodd" d="M121.068 47.5345C120.993 47.837 121.18 48.1422 121.486 48.2162C122.753 48.523 125.657 49.1356 127.44 49.1949C127.755 49.2054 128.018 48.9616 128.029 48.6504C128.039 48.3392 127.793 48.0785 127.478 48.068C125.826 48.013 123.024 47.4278 121.757 47.1209C121.451 47.0469 121.143 47.2321 121.068 47.5345Z" fill="#F68997"/>
<path d="M57.3055 89.6779C57.3055 90.9918 56.2294 92.0568 54.9019 92.0568C53.5743 92.0568 52.4982 90.9918 52.4982 89.6779C52.4982 88.3641 53.5743 87.2991 54.9019 87.2991C56.2294 87.2991 57.3055 88.3641 57.3055 89.6779Z" fill="#FDBF85"/>
<path fill-rule="evenodd" clip-rule="evenodd" d="M54.9024 90.1094C55.1432 90.1094 55.3383 89.9163 55.3383 89.678C55.3383 89.4397 55.1432 89.2466 54.9024 89.2466C54.6617 89.2466 54.4665 89.4397 54.4665 89.678C54.4665 89.9163 54.6617 90.1094 54.9024 90.1094ZM54.9024 91.237C55.7724 91.237 56.4777 90.539 56.4777 89.678C56.4777 88.817 55.7724 88.119 54.9024 88.119C54.0324 88.119 53.3271 88.817 53.3271 89.678C53.3271 90.539 54.0324 91.237 54.9024 91.237Z" fill="#FEA768"/>
<path d="M76.8586 33.2769C76.8586 32.0314 77.8788 31.0217 79.1373 31.0217H81.6002C82.8587 31.0217 83.8789 32.0314 83.8789 33.2769V35.7143C83.8789 36.9598 82.8587 37.9695 81.6002 37.9695H79.1373C77.8788 37.9695 76.8586 36.9598 76.8586 35.7143V33.2769Z" fill="#FCBFC8"/>
<path fill-rule="evenodd" clip-rule="evenodd" d="M80.5797 33.679L76.9182 33.679V35.1649L80.5797 35.1649V33.679ZM76.9182 32.5514C76.2889 32.5514 75.7788 33.0562 75.7788 33.679V35.1649C75.7788 35.7877 76.2889 36.2925 76.9182 36.2925H80.5797C81.2089 36.2925 81.719 35.7877 81.719 35.1649V33.679C81.719 33.0562 81.2089 32.5514 80.5797 32.5514H76.9182Z" fill="#D43E51"/>
<path d="M54.729 33.2769C54.729 32.0314 55.7492 31.0217 57.0077 31.0217H59.4706C60.7291 31.0217 61.7493 32.0314 61.7493 33.2769V35.7143C61.7493 36.9598 60.7291 37.9695 59.4706 37.9695H57.0077C55.7492 37.9695 54.729 36.9598 54.729 35.7143V33.2769Z" fill="#FCBFC8"/>
<path fill-rule="evenodd" clip-rule="evenodd" d="M61.69 33.6796L58.0285 33.6796V35.1655L61.69 35.1655V33.6796ZM58.0285 32.552C57.3993 32.552 56.8892 33.0568 56.8892 33.6796V35.1655C56.8892 35.7883 57.3993 36.2931 58.0285 36.2931H61.69C62.3193 36.2931 62.8294 35.7883 62.8294 35.1655V33.6796C62.8294 33.0568 62.3193 32.552 61.69 32.552H58.0285Z" fill="#D43E51"/>
<path d="M79.3663 31.4545C80.8329 36.8715 77.5846 42.4396 72.1111 43.8911C66.6375 45.3426 61.0114 42.1278 59.5447 36.7108C58.0781 31.2937 61.3264 25.7257 66.7999 24.2742C72.2735 22.8227 77.8996 26.0374 79.3663 31.4545Z" fill="#FCBFC8"/>
<path fill-rule="evenodd" clip-rule="evenodd" d="M66.4809 29.3088C64.9279 28.9482 63.5928 29.5015 62.7734 30.1801C62.5321 30.38 62.1728 30.3484 61.9709 30.1096C61.769 29.8708 61.8009 29.5152 62.0422 29.3154C63.0748 28.4602 64.7674 27.7527 66.7412 28.2111C67.0475 28.2822 67.2375 28.5856 67.1656 28.8887C67.0938 29.1919 66.7872 29.38 66.4809 29.3088Z" fill="#983038"/>
<path fill-rule="evenodd" clip-rule="evenodd" d="M76.9908 29.6677C75.6557 28.8038 74.2099 28.8726 73.2055 29.2335C72.9098 29.3398 72.583 29.1887 72.4757 28.896C72.3683 28.6033 72.521 28.2799 72.8167 28.1736C74.0824 27.7189 75.9174 27.626 77.6143 28.7239C77.8776 28.8943 77.9515 29.2437 77.7794 29.5043C77.6072 29.7649 77.2542 29.8381 76.9908 29.6677Z" fill="#983038"/>
<mask id="mask0_596_1975" style="mask-type:alpha" maskUnits="userSpaceOnUse" x="71" y="32" width="7" height="3">
<path fill-rule="evenodd" clip-rule="evenodd" d="M75.8763 34.8663C74.7786 34.3775 73.8961 34.3922 72.6972 34.7923C72.2204 34.9514 71.7425 34.6333 71.6298 34.0817C71.5171 33.5302 71.8122 32.9541 72.289 32.795C73.7933 32.2929 75.0725 32.2488 76.5762 32.9185C77.0264 33.119 77.2347 33.7176 77.0414 34.2555C76.8482 34.7933 76.3265 35.0668 75.8763 34.8663Z" fill="black"/>
</mask>
<g mask="url(#mask0_596_1975)">
<path fill-rule="evenodd" clip-rule="evenodd" d="M75.8763 34.8663C74.7786 34.3775 73.8961 34.3922 72.6972 34.7923C72.2204 34.9514 71.7425 34.6333 71.6298 34.0817C71.5171 33.5302 71.8122 32.9541 72.289 32.795C73.7933 32.2929 75.0725 32.2488 76.5762 32.9185C77.0264 33.119 77.2347 33.7176 77.0414 34.2555C76.8482 34.7933 76.3265 35.0668 75.8763 34.8663Z" fill="white"/>
<path d="M75.9826 33.7048C75.9876 34.574 75.2797 35.2826 74.4014 35.2875C73.5232 35.2924 72.8072 34.5918 72.8022 33.7227C72.7973 32.8535 73.5052 32.1449 74.3834 32.14C75.2616 32.1351 75.9776 32.8357 75.9826 33.7048Z" fill="#318C6E"/>
</g>
<mask id="mask1_596_1975" style="mask-type:alpha" maskUnits="userSpaceOnUse" x="61" y="32" width="7" height="3">
<path fill-rule="evenodd" clip-rule="evenodd" d="M66.156 34.7521C65.0281 34.3358 64.1485 34.4079 62.9788 34.8852C62.5137 35.075 62.0157 34.7887 61.8665 34.2457C61.7174 33.7027 61.9736 33.1086 62.4387 32.9188C63.9064 32.3199 65.1799 32.1926 66.7249 32.7629C67.1874 32.9336 67.435 33.5173 67.2779 34.0666C67.1209 34.6159 66.6185 34.9228 66.156 34.7521Z" fill="black"/>
</mask>
<g mask="url(#mask1_596_1975)">
<path fill-rule="evenodd" clip-rule="evenodd" d="M66.156 34.7521C65.0281 34.3358 64.1485 34.4079 62.9788 34.8852C62.5137 35.075 62.0157 34.7887 61.8665 34.2457C61.7174 33.7027 61.9736 33.1086 62.4387 32.9188C63.9064 32.3199 65.1799 32.1926 66.7249 32.7629C67.1874 32.9336 67.435 33.5173 67.2779 34.0666C67.1209 34.6159 66.6185 34.9228 66.156 34.7521Z" fill="white"/>
<path d="M66.601 33.3979C66.6637 34.2649 66.0045 35.018 65.1285 35.0801C64.2525 35.1423 63.4915 34.4898 63.4287 33.6229C63.3659 32.7559 64.0252 32.0027 64.9012 31.9406C65.7772 31.8785 66.5382 32.531 66.601 33.3979Z" fill="#318C6E"/>
</g>
<path d="M68.9089 33.1436C68.9859 32.8389 69.2625 32.6251 69.5799 32.6251C69.8973 32.6251 70.1739 32.8389 70.2509 33.1436L70.6621 34.7715C70.84 35.4757 70.93 36.1988 70.93 36.9247V37.7023C70.93 38.4403 70.3255 39.0385 69.5799 39.0385C68.8343 39.0385 68.2299 38.4403 68.2299 37.7023V36.9247C68.2299 36.1988 68.3198 35.4757 68.4977 34.7715L68.9089 33.1436Z" fill="#F68997"/>
<path fill-rule="evenodd" clip-rule="evenodd" d="M71.873 29.0724C71.2132 29.1516 70.4263 29.0849 69.4834 28.837C67.0333 28.1928 65.5748 25.7049 66.2257 23.2801C67.1963 19.6644 69.3905 19.4118 71.8406 20.056C74.7999 20.8341 75.5705 22.6381 75.2869 24.6957C75.6589 24.7546 76.0646 24.9022 76.5088 25.1561C78.4712 26.2773 78.424 28.0867 77.5378 29.6058C76.254 31.8064 74.6542 31.4316 73.2994 30.6575C72.6073 30.262 72.0658 29.7612 71.873 29.0724Z" fill="#D43E51"/>
<path fill-rule="evenodd" clip-rule="evenodd" d="M68.7115 20.5842C67.9474 20.9244 67.2355 21.7117 66.7758 23.4243C66.695 23.7252 66.383 23.9044 66.0789 23.8244C65.7749 23.7445 65.5939 23.4357 65.6746 23.1348C66.1855 21.2316 67.056 20.0848 68.2441 19.5559C69.4027 19.0401 70.7237 19.1786 71.9864 19.5106C73.5587 19.924 74.6318 20.633 75.2575 21.589C75.7869 22.3979 75.9557 23.3225 75.9009 24.2652C76.1914 24.359 76.4887 24.4931 76.7933 24.6671C77.9031 25.3012 78.5014 26.1714 78.6541 27.1446C78.8029 28.093 78.5157 29.0559 78.0308 29.8871C77.8735 30.1567 77.525 30.2491 77.2526 30.0934C76.9801 29.9377 76.8868 29.5929 77.0441 29.3233C77.4454 28.6353 77.6249 27.9339 77.5282 27.3175C77.4355 26.726 77.0762 26.1308 76.2236 25.6436C75.8256 25.4162 75.4856 25.2975 75.1965 25.2517C74.8909 25.2034 74.6802 24.9224 74.722 24.6188C74.8519 23.6761 74.7315 22.8595 74.3012 22.202C73.8726 21.547 73.0808 20.965 71.6938 20.6004C70.5064 20.2881 69.5052 20.2309 68.7115 20.5842Z" fill="#983038"/>
<path fill-rule="evenodd" clip-rule="evenodd" d="M37.4262 61.0456C37.7384 61.007 38.023 61.2263 38.062 61.5353L38.4845 64.8894C38.5235 65.1984 38.3019 65.4801 37.9897 65.5186C37.6775 65.5571 37.3929 65.3379 37.354 65.0289L36.9314 61.6748C36.8924 61.3658 37.114 61.0841 37.4262 61.0456Z" fill="#F68997"/>
<path fill-rule="evenodd" clip-rule="evenodd" d="M102.829 62.4557C102.517 62.4172 102.233 62.6364 102.194 62.9454L101.771 66.2996C101.732 66.6085 101.954 66.8902 102.266 66.9288C102.578 66.9673 102.863 66.7481 102.902 66.4391L103.324 63.0849C103.363 62.7759 103.142 62.4942 102.829 62.4557Z" fill="#F68997"/>
<path fill-rule="evenodd" clip-rule="evenodd" d="M129.322 38.5207C129.322 38.2093 129.577 37.9569 129.892 37.9569H132.811C133.125 37.9569 133.38 38.2093 133.38 38.5207C133.38 38.8321 133.125 39.0845 132.811 39.0845H129.892C129.577 39.0845 129.322 38.8321 129.322 38.5207Z" fill="#F68997"/>
<path d="M44.1078 50.1624L58.3594 57.7462C58.6301 57.2914 58.8781 56.8801 59.0997 56.5243C61.4561 52.7399 60.31 47.7547 56.5396 45.3895C52.7692 43.0242 47.8024 44.1747 45.4459 47.9591C44.9749 48.7156 44.5321 49.4492 44.1078 50.1624Z" fill="#DBE8BB"/>
<path d="M58.3594 57.7462C58.1199 58.1487 57.862 58.5862 57.5896 59.0483C56.9867 60.0712 56.3098 61.2196 55.5876 62.4025L41.3565 54.7907C41.9433 53.8396 42.5214 52.8556 43.1238 51.8302C43.4433 51.2863 43.7696 50.7308 44.1078 50.1624L58.3594 57.7462Z" fill="#D1FAE8"/>
<path fill-rule="evenodd" clip-rule="evenodd" d="M59.3981 56.0445C59.6659 56.2078 59.7492 56.5551 59.5842 56.8202C59.171 57.4839 58.663 58.3455 58.0813 59.3325L58.0732 59.3462C56.4917 62.0294 54.3803 65.6114 52.2727 68.4077C51.1052 69.9566 49.6843 71.6367 47.9943 73.1258C47.7594 73.3328 47.3993 73.3122 47.19 73.0796C46.9808 72.8471 47.0017 72.4907 47.2367 72.2836C48.849 70.8629 50.2183 69.2474 51.3594 67.7334C53.4249 64.9931 55.5071 61.462 57.0971 58.7644L57.101 58.7578C57.6786 57.7779 58.1931 56.905 58.6142 56.2287C58.7793 55.9636 59.1302 55.8811 59.3981 56.0445Z" fill="#24BC85"/>
<path fill-rule="evenodd" clip-rule="evenodd" d="M53.8404 9.95651C54.0629 9.73634 54.4236 9.73634 54.6461 9.95651C55.3213 10.6247 55.7801 11.4136 56.1856 12.2471C56.3591 12.6037 56.5269 12.9774 56.6968 13.3559C56.7251 13.4188 56.7534 13.4818 56.7818 13.5449C56.9827 13.9914 57.1912 14.4481 57.4285 14.9177C57.8802 15.8118 58.5687 16.6684 59.2458 17.3676C59.9238 18.0678 60.5613 18.5805 60.8836 18.7931C61.1454 18.9659 61.2161 19.3159 61.0416 19.575C60.8671 19.8341 60.5134 19.9041 60.2516 19.7314C59.8441 19.4625 59.1438 18.8919 58.4232 18.1478C57.7016 17.4026 56.9306 16.4536 56.4094 15.4219C56.1601 14.9285 55.943 14.4525 55.741 14.0037C55.7119 13.9389 55.6831 13.8748 55.6546 13.8114C55.4842 13.432 55.3243 13.0761 55.159 12.7362C54.774 11.9448 54.3815 11.2893 53.8404 10.7538C53.618 10.5337 53.618 10.1767 53.8404 9.95651Z" fill="#983038"/>
<path fill-rule="evenodd" clip-rule="evenodd" d="M78.1984 10.5677C77.914 10.4345 77.5744 10.5547 77.4398 10.8362C77.0315 11.6904 76.8679 12.5861 76.7697 13.5061C76.7277 13.8997 76.6969 14.3075 76.6656 14.7205C76.6604 14.7891 76.6552 14.8579 76.65 14.9268C76.6127 15.4142 76.5718 15.9137 76.5082 16.4349C76.3439 17.7822 75.7465 19.2015 75.2093 20.2011C75.0616 20.476 75.167 20.8174 75.4448 20.9636C75.7226 21.1098 76.0675 21.0055 76.2153 20.7306C76.7839 19.6726 77.4512 18.1127 77.6394 16.5701C77.7062 16.0224 77.7486 15.5018 77.7861 15.0119C77.7915 14.9412 77.7968 14.8713 77.802 14.8021C77.8333 14.388 77.8627 13.9996 77.9028 13.6245C77.996 12.751 78.1425 12.0029 78.4697 11.3184C78.6043 11.0369 78.4828 10.7008 78.1984 10.5677Z" fill="#983038"/>
</svg>
