<svg width="20" height="20" viewBox="0 0 20 20" fill="none" xmlns="http://www.w3.org/2000/svg">
<path fill-rule="evenodd" clip-rule="evenodd" d="M13.3083 2.16725C12.2613 1.7245 11.1482 1.5 10 1.5C9.71972 1.5 9.33144 1.50815 9.14135 1.55306C8.39962 1.72832 7.74996 2.55465 7.74996 3.50463C7.74996 4.62437 8.59419 5.50198 9.49992 5.50198C10.3329 5.50198 11.0761 4.9012 11.2699 4.08152C11.3651 3.67892 11.7691 3.42961 12.1722 3.52467C12.5753 3.61973 12.8249 4.02316 12.7298 4.42576C12.3816 5.89854 11.0519 7 9.49992 7C7.60422 7 6.25 5.28055 6.25 3.50463C6.25 3.08072 6.32803 2.65928 6.47262 2.26355C5.54819 2.68533 4.71371 3.26529 3.9895 3.9895C3.2085 4.7705 2.59525 5.67975 2.16725 6.69175C1.7245 7.7385 1.5 8.85175 1.5 9.99975C1.5 11.1477 1.7245 12.2607 2.16725 13.3077C2.59525 14.3197 3.2085 15.229 3.9895 16.01C4.7705 16.791 5.67975 17.4043 6.69175 17.8323C7.73875 18.275 8.85175 18.4995 10 18.4995C11.1482 18.4995 12.2613 18.275 13.3083 17.8323C14.3202 17.4043 15.2295 16.791 16.0105 16.01C16.7915 15.229 17.4048 14.3197 17.8328 13.3077C18.2755 12.261 18.5 11.1477 18.5 9.99975C18.5 8.85175 18.2755 7.73875 17.8328 6.69175C17.4048 5.67975 16.7915 4.7705 16.0105 3.9895C15.2295 3.2085 14.3202 2.59525 13.3083 2.16725ZM0 10C0 4.47725 4.47725 0 10 0C15.5228 0 20 4.47725 20 10C20 15.5228 15.5228 20 10 20C4.47725 20 0 15.5228 0 10ZM6.75 11C7.44036 11 8 10.4404 8 9.75C8 9.05964 7.44036 8.5 6.75 8.5C6.05964 8.5 5.5 9.05964 5.5 9.75C5.5 10.4404 6.05964 11 6.75 11ZM13.25 11C13.9404 11 14.5 10.4404 14.5 9.75C14.5 9.05964 13.9404 8.5 13.25 8.5C12.5596 8.5 12 9.05964 12 9.75C12 10.4404 12.5596 11 13.25 11ZM13.0298 13.3708C12.7915 13.131 12.4233 13.081 12.13 13.2477C11.1285 13.8173 10.146 13.8405 9.995 13.8405C9.81575 13.8395 8.853 13.8062 7.87125 13.2485C7.57725 13.0815 7.20875 13.1305 6.97 13.3708C6.6205 13.722 6.6975 14.3133 7.127 14.5585C7.47225 14.7558 7.84125 14.9195 8.22975 15.0462C9.079 15.3237 9.78425 15.349 9.99475 15.3497C10.193 15.3497 10.9073 15.328 11.7695 15.0462C12.158 14.9192 12.527 14.7558 12.8723 14.5585C13.3018 14.313 13.3793 13.722 13.0298 13.3708Z" fill="#1F1F1F"/>
</svg>
