<svg width="688" height="40" viewBox="0 0 688 40" fill="none" xmlns="http://www.w3.org/2000/svg">
<path d="M19.7871 1C32.6765 1.00007 40 7.64403 40 19.7666C39.9999 32.1999 32.6763 38.9999 19.7871 39H1.84961C0.828192 38.9998 0.000214346 38.1718 0 37.1504V2.84961C0.00021409 1.82819 0.828194 1.00021 1.84961 1H19.7871ZM0.0449219 9.09082V28H13.6357V23.8633H5.17871V20.6133H12.9707V16.4775H5.17871V13.2275H13.6729V9.09082H0.0449219Z" fill="#238662"/>
<path d="M61.4195 28.7476C59.9694 28.7476 58.7197 28.4705 57.6704 27.9164C56.627 27.3564 55.8223 26.5547 55.2564 25.5113C54.6964 24.462 54.4164 23.2064 54.4164 21.7445C54.4164 20.3415 54.6993 19.1153 55.2653 18.0661C55.8312 17.0168 56.6299 16.2003 57.6615 15.6167C58.6931 15.0331 59.9104 14.7413 61.3134 14.7413C62.3391 14.7413 63.2676 14.9005 64.0987 15.2188C64.9299 15.5371 65.6403 15.9999 66.2297 16.6071C66.8192 17.2083 67.2731 17.9393 67.5915 18.8C67.9098 19.6606 68.0689 20.6303 68.0689 21.7091V22.8409H55.9373V20.1528H63.577C63.5712 19.7638 63.4709 19.4219 63.2764 19.1271C63.0878 18.8265 62.8313 18.5936 62.5071 18.4286C62.1888 18.2576 61.8263 18.1722 61.4195 18.1722C61.0246 18.1722 60.662 18.2576 60.3319 18.4286C60.0018 18.5936 59.7365 18.8235 59.5361 19.1183C59.3416 19.413 59.2384 19.7579 59.2266 20.1528V23.0531C59.2266 23.4893 59.318 23.8784 59.5007 24.2203C59.6835 24.5622 59.9458 24.8304 60.2877 25.025C60.6296 25.2195 61.0422 25.3168 61.5256 25.3168C61.8616 25.3168 62.1682 25.2696 62.4452 25.1753C62.7282 25.081 62.9699 24.9454 63.1703 24.7685C63.3707 24.5858 63.5181 24.3677 63.6124 24.1142H68.0689C67.9157 25.0574 67.5531 25.8768 66.9813 26.5724C66.4095 27.2621 65.652 27.7985 64.7089 28.1817C63.7716 28.5589 62.6751 28.7476 61.4195 28.7476ZM82.4753 19.3393H77.9834C77.9598 19.0623 77.8626 18.8235 77.6916 18.6231C77.5207 18.4227 77.2996 18.2694 77.0284 18.1633C76.7632 18.0513 76.4684 17.9953 76.1442 17.9953C75.7257 17.9953 75.3661 18.0719 75.0654 18.2252C74.7648 18.3785 74.6174 18.5966 74.6233 18.8795C74.6174 19.08 74.7029 19.2657 74.8798 19.4366C75.0625 19.6076 75.4132 19.7402 75.932 19.8345L78.6908 20.3297C80.082 20.5832 81.1165 21.0105 81.7945 21.6118C82.4783 22.2072 82.8231 23.006 82.829 24.0081C82.8231 24.9749 82.5343 25.8149 81.9625 26.5282C81.3966 27.2355 80.6214 27.7838 79.6369 28.1728C78.6584 28.556 77.5413 28.7476 76.2857 28.7476C74.2107 28.7476 72.5866 28.3232 71.4136 27.4743C70.2464 26.6254 69.595 25.5054 69.4594 24.1142H74.305C74.3698 24.5445 74.5821 24.8776 74.9417 25.1134C75.3071 25.3433 75.7669 25.4582 76.3211 25.4582C76.7691 25.4582 77.1375 25.3816 77.4263 25.2283C77.7211 25.0751 77.8714 24.857 77.8773 24.574C77.8714 24.3146 77.7417 24.1083 77.4882 23.955C77.2407 23.8018 76.8516 23.678 76.3211 23.5837L73.9159 23.1592C72.5306 22.9175 71.4931 22.4577 70.8034 21.7798C70.1137 21.1019 69.7718 20.2295 69.7777 19.1625C69.7718 18.2193 70.0194 17.4206 70.5205 16.7662C71.0274 16.106 71.7496 15.6049 72.6869 15.263C73.63 14.9152 74.7471 14.7413 76.0381 14.7413C78.0011 14.7413 79.5485 15.1481 80.6803 15.9616C81.818 16.7751 82.4164 17.901 82.4753 19.3393ZM91.2425 28.7476C89.7688 28.7476 88.5073 28.4558 87.458 27.8722C86.4087 27.2827 85.604 26.4633 85.044 25.414C84.484 24.3588 84.204 23.1357 84.204 21.7445C84.204 20.3533 84.484 19.133 85.044 18.0837C85.604 17.0286 86.4087 16.2092 87.458 15.6256C88.5073 15.0361 89.7688 14.7413 91.2425 14.7413C92.5747 14.7413 93.7272 14.983 94.6998 15.4664C95.6784 15.9439 96.4359 16.6218 96.9723 17.5001C97.5087 18.3726 97.7799 19.3983 97.7858 20.5773H93.2585C93.1937 19.864 92.9874 19.3217 92.6396 18.9503C92.2977 18.573 91.8556 18.3844 91.3132 18.3844C90.8888 18.3844 90.5174 18.5082 90.1991 18.7558C89.8808 18.9974 89.6332 19.3659 89.4563 19.861C89.2795 20.3503 89.1911 20.9663 89.1911 21.7091C89.1911 22.4518 89.2795 23.0708 89.4563 23.566C89.6332 24.0553 89.8808 24.4237 90.1991 24.6713C90.5174 24.913 90.8888 25.0338 91.3132 25.0338C91.6728 25.0338 91.9911 24.9513 92.2682 24.7862C92.5453 24.6153 92.7693 24.3677 92.9402 24.0435C93.1171 23.7134 93.2232 23.3125 93.2585 22.8409H97.7858C97.7681 24.0376 97.494 25.081 96.9635 25.9711C96.4329 26.8553 95.6813 27.5391 94.7087 28.0225C93.7419 28.5059 92.5865 28.7476 91.2425 28.7476ZM106.343 28.7476C104.869 28.7476 103.608 28.4558 102.558 27.8722C101.509 27.2827 100.705 26.4633 100.144 25.414C99.5845 24.3588 99.3045 23.1357 99.3045 21.7445C99.3045 20.3533 99.5845 19.133 100.144 18.0837C100.705 17.0286 101.509 16.2092 102.558 15.6256C103.608 15.0361 104.869 14.7413 106.343 14.7413C107.817 14.7413 109.078 15.0361 110.127 15.6256C111.177 16.2092 111.981 17.0286 112.541 18.0837C113.101 19.133 113.381 20.3533 113.381 21.7445C113.381 23.1357 113.101 24.3588 112.541 25.414C111.981 26.4633 111.177 27.2827 110.127 27.8722C109.078 28.4558 107.817 28.7476 106.343 28.7476ZM106.378 25.1399C106.791 25.1399 107.148 25.0014 107.448 24.7243C107.749 24.4473 107.982 24.0523 108.147 23.5395C108.312 23.0266 108.394 22.4165 108.394 21.7091C108.394 20.9958 108.312 20.3857 108.147 19.8787C107.982 19.3659 107.749 18.9709 107.448 18.6939C107.148 18.4168 106.791 18.2783 106.378 18.2783C105.942 18.2783 105.568 18.4168 105.255 18.6939C104.943 18.9709 104.704 19.3659 104.539 19.8787C104.374 20.3857 104.292 20.9958 104.292 21.7091C104.292 22.4165 104.374 23.0266 104.539 23.5395C104.704 24.0523 104.943 24.4473 105.255 24.7243C105.568 25.0014 105.942 25.1399 106.378 25.1399ZM120.243 10.3909V28.5H115.362V10.3909H120.243ZM126.515 28.7122C125.648 28.7122 124.882 28.5707 124.216 28.2878C123.555 27.9989 123.037 27.5627 122.659 26.9791C122.282 26.3955 122.093 25.6528 122.093 24.7509C122.093 24.0081 122.22 23.3744 122.474 22.8498C122.727 22.3192 123.081 21.8859 123.535 21.5499C123.989 21.2139 124.516 20.9575 125.117 20.7806C125.725 20.6038 126.379 20.4888 127.08 20.4358C127.841 20.3768 128.451 20.3061 128.911 20.2236C129.377 20.1352 129.713 20.0143 129.919 19.861C130.125 19.7019 130.228 19.4926 130.228 19.2332V19.1979C130.228 18.8442 130.093 18.573 129.822 18.3844C129.55 18.1957 129.203 18.1014 128.778 18.1014C128.312 18.1014 127.932 18.2046 127.638 18.4109C127.349 18.6113 127.175 18.9208 127.116 19.3393H122.624C122.683 18.5141 122.945 17.7536 123.411 17.058C123.882 16.3565 124.569 15.7965 125.471 15.378C126.373 14.9536 127.499 14.7413 128.849 14.7413C129.822 14.7413 130.694 14.8563 131.466 15.0862C132.238 15.3102 132.896 15.6256 133.438 16.0323C133.98 16.4332 134.393 16.9048 134.676 17.4471C134.965 17.9835 135.109 18.5671 135.109 19.1979V28.5H130.547V26.5901H130.441C130.169 27.097 129.839 27.5067 129.45 27.8191C129.067 28.1316 128.628 28.3585 128.133 28.5C127.643 28.6415 127.104 28.7122 126.515 28.7122ZM128.106 25.6351C128.478 25.6351 128.825 25.5585 129.15 25.4052C129.48 25.2519 129.748 25.0309 129.954 24.742C130.161 24.4532 130.264 24.1024 130.264 23.6898V22.558C130.134 22.611 129.995 22.6611 129.848 22.7083C129.707 22.7554 129.553 22.7996 129.388 22.8409C129.229 22.8822 129.058 22.9205 128.875 22.9559C128.699 22.9912 128.513 23.0237 128.318 23.0531C127.941 23.1121 127.632 23.2093 127.39 23.3449C127.154 23.4746 126.977 23.6367 126.859 23.8313C126.747 24.0199 126.691 24.2321 126.691 24.4679C126.691 24.8452 126.824 25.134 127.089 25.3344C127.355 25.5349 127.694 25.6351 128.106 25.6351ZM137.441 28.5V14.9182H142.181V17.5001H142.322C142.57 16.5452 142.962 15.8466 143.498 15.4045C144.041 14.9624 144.674 14.7413 145.4 14.7413C145.612 14.7413 145.821 14.759 146.027 14.7944C146.24 14.8239 146.443 14.8681 146.637 14.927V19.0918C146.396 19.0092 146.098 18.9473 145.744 18.9061C145.391 18.8648 145.087 18.8442 144.834 18.8442C144.356 18.8442 143.926 18.9532 143.543 19.1713C143.165 19.3836 142.868 19.6842 142.65 20.0733C142.431 20.4564 142.322 20.9074 142.322 21.4261V28.5H137.441Z" fill="#238662"/>
</svg>
